<svg width="25" height="33" viewBox="0 0 25 33" fill="none" xmlns="http://www.w3.org/2000/svg">
<path fill-rule="evenodd" clip-rule="evenodd" d="M0 26L7 0H18.5C21 1.33333 24.1 5.8 16.5 13C16.6043 13.2503 17 13.5 17.4236 13.9723C17.8473 14.4446 18 15.5 18 16C18 17.5 17.7745 21.9763 15.5 27.5C15.1667 27.8333 14.9 28.5 16.5 28.5H25C24.5 29.8333 23 32.5 21 32.5H11.5C10.5 32.3333 8.6 31.3 9 28.5C9.19778 27.1155 9.81118 24.2887 10.3808 21.6633C10.9633 18.9791 11.5 16.5056 11.5 16C11.5 14.9989 10.5709 14.5765 10 15C9.81191 15.1395 9.78545 15.2846 9.73254 15.5748C9.6938 15.7872 9.64088 16.0774 9.5 16.5C8.94144 18.1757 8.44093 20.2866 7.99244 22.178C7.62842 23.7133 7.29868 25.104 7 26H0ZM11.5 10.5C11.1 10.5 12.3333 6.5 13 4.5H14.5C14.9 4.5 13.6667 8.5 13 10.5H11.5Z" fill="white"/>
</svg>
