<svg width="32" height="38" viewBox="0 0 32 38" fill="none" xmlns="http://www.w3.org/2000/svg">
<path d="M26.153 11.572C27.1375 11.4052 29.811 7.61042 31.0246 5.73388C31.64 5.5775 31.9476 5.94239 31.9989 6.51577C32.0502 7.08916 30.2554 9.38272 29.6913 10.0604C29.24 10.6025 27.4863 12.0238 26.6658 12.6667C27.6914 12.7188 27.7939 12.5624 28.9734 13.1879C29.9169 13.6883 30.4947 14.5085 30.6656 14.856C28.8606 14.2722 27.9991 14.7865 27.7939 15.1166C30.0503 17.1495 30.6144 18.6612 30.9733 19.7558C31.3323 20.8505 31.4861 23.6132 31.5374 25.5418C31.5784 27.0848 31.6912 28.8605 31.7425 29.5556C31.6912 29.2949 30.2554 27.9396 29.9477 27.679C29.64 27.4184 28.5119 26.3237 27.3837 25.177C26.6598 24.4411 26.1074 23.276 25.8113 22.494C26.1814 24.0586 25.9605 27.7579 23.6915 31.1715C21.6403 34.2573 18.8028 37.0096 17.6404 38C18.7686 34.5075 18.4096 33.8299 18.3071 28.513C18.2369 24.8753 18.8619 22.91 19.3223 22.1347C17.6289 24.2593 13.5806 25.6166 11.1278 26.1152C9.07662 26.5322 2.8546 26.15 0 25.9067C2.05121 25.6461 5.64084 22.1536 6.46132 21.0069C7.28181 19.8601 7.94845 19.2867 9.8971 17.775C11.456 16.5657 14.7516 16.1591 16.2046 16.107C13.7944 15.9506 10.3073 13.7092 9.58942 13.1879C8.8715 12.6667 6.87156 10.5295 5.7434 9.38272C4.84086 8.46529 2.15377 7.26292 0.923046 6.77641L9.99966 6.88066C14.0413 6.80165 16.9295 8.338 18.0364 9.23868C17.5326 8.66173 16.7972 6.72823 16.461 5.73388C16.2901 5.14312 15.9482 3.82606 15.9482 3.28395C15.9482 2.74184 14.8884 0.86877 14.3585 0L14.4617 0.0555481C17.0253 1.43504 18.9522 2.47195 21.1788 4.11797C22.9838 5.4524 23.8795 8.32282 24.1018 9.59122C25.1274 9.04911 25.2128 7.14129 25.1274 6.25514C27.0145 7.96488 26.5974 10.5121 26.153 11.572Z" fill="white"/>
</svg>
