<svg width="28" height="33" viewBox="0 0 28 33" fill="none" xmlns="http://www.w3.org/2000/svg">
<path fill-rule="evenodd" clip-rule="evenodd" d="M8.56937 0.259932C7.01541 0.351641 3.46874 1.85567 1.71368 7.1381C-0.0413762 12.4205 -0.114504 15.7587 0.0683148 16.7675C0.191395 17.4467 0.42307 17.4464 0.616811 18.4183C0.891038 19.7939 0.908591 20.7663 1 21.5C1.5 22 2.31702 22.3251 2.5364 22.5452C2.81063 22.8203 5.27868 25.5716 6.10136 26.1218C6.92404 26.6721 7.74672 27.7726 8.29518 27.7726C8.84363 27.7726 10.2148 26.397 10.7632 26.397C11.3117 26.397 12.957 28.3228 13.5055 28.3228C14.054 28.3228 15.425 26.397 16.2477 26.397C17.0705 26.397 17.8932 27.7726 18.7158 27.7726C19.5385 27.7726 21.7323 25.8467 22.2808 25.8467C22.8292 25.8467 22.8292 25.2965 23.3777 24.7462C23.9261 24.1959 26.9426 22.5452 26.9426 22.2701C26.9426 21.9949 27.2169 16.4924 27.4911 16.2173C27.7653 15.9421 28.133 13.836 27.7653 12.9158C27 11 26.6684 8.2386 26.12 7.1381C25.5715 6.03759 23.9261 1.08531 20.087 0.259932C17.0156 -0.400372 15.6993 0.351641 15.4251 0.810185C14.6024 1.36044 12.8474 2.68105 12.4086 3.56145C11.8601 4.66196 11.0375 6.03759 11.0375 7.1381C11.0375 8.23861 13.2313 9.61424 14.054 9.61424C14.8766 9.61424 17.6189 8.23861 17.6189 7.41323C17.6189 6.58785 17.6189 5.76247 17.0705 5.76247H15.1509C15.3337 5.30392 15.8639 4.38683 16.522 4.38683C17.3447 4.38683 20.6354 5.21221 21.1839 5.48734C21.6226 5.70744 21.7323 6.67955 21.7323 7.1381V10.9899C19.6299 12.6406 15.2606 15.9422 14.6024 15.9422C13.7797 15.9422 5.82713 11.265 5.82713 10.9899V5.76247C5.82713 4.93709 8.56937 2.18582 8.56937 1.63557V0.259932ZM8.02091 15.9422H6.10136C5.00445 15.9422 4.73022 17.0427 4.73022 17.5929V20.3442C4.73022 21.1696 6.37557 22.5452 6.92404 22.5452H9.11786C9.94054 22.5452 10.7632 21.4447 10.7632 19.7939C10.7632 18.4733 8.93502 16.6758 8.02091 15.9422ZM22.8292 16.4924H20.9096H20.3612C19.1546 16.4924 17.6646 18.6934 17.0705 19.7939V21.4447C17.0705 22.3251 18.3502 22.912 18.99 23.0954H21.1839C23.1035 23.0954 23.3777 20.069 23.3777 18.4183C23.3777 17.0977 23.0121 16.5841 22.8292 16.4924Z" fill="white"/>
<path d="M6.37557 28.0477C6.28416 28.4146 6.15618 29.2033 6.37557 29.4234C6.64979 29.6985 7.74668 30.799 8.02091 30.799H8.56937C8.66077 30.3404 8.78875 29.3683 8.56937 29.1482C8.29514 28.8731 7.47246 28.0477 7.19823 28.0477H6.37557Z" fill="white"/>
<path d="M9.66628 28.598C9.66628 29.2399 9.77597 30.6889 10.2147 31.3492C10.7632 32.1746 11.5859 33 11.8601 33H12.4086C12.5914 33 12.957 32.8899 12.957 32.4497V29.6985C12.957 29.4784 12.7742 29.2399 12.6828 29.1482C12.3171 28.7814 11.4762 28.0477 11.0374 28.0477C10.5986 28.0477 9.9405 28.4146 9.66628 28.598Z" fill="white"/>
<path d="M14.8766 29.4234C14.7852 30.3404 14.9314 32.4497 15.1508 32.4497H15.6993C15.9735 32.4497 17.3446 31.3492 17.3446 31.0741C17.3446 30.799 17.6189 29.1482 17.3446 28.8731C17.0704 28.598 16.7962 28.3228 16.2477 28.3228C15.6993 28.3228 14.9128 29.0304 14.8766 29.4234Z" fill="white"/>
<path d="M19.5385 29.1482C19.4471 29.6985 19.3191 30.799 19.5385 30.799H20.0869C20.3611 30.799 21.7323 29.4234 21.7323 29.1482V28.0477C21.7323 27.8276 21.001 28.1394 20.6354 28.3228C20.4526 28.4146 20.0321 28.653 19.8127 28.8731L19.5385 29.1482Z" fill="white"/>
</svg>
