<svg width="36" height="28" viewBox="0 0 36 28" fill="none" xmlns="http://www.w3.org/2000/svg">
<path fill-rule="evenodd" clip-rule="evenodd" d="M14.6364 0.205925C14.0251 0.358989 12.8558 0.809516 12.0397 1.20517C11.2236 1.60371 10.0069 2.41524 9.33619 3.01017C8.6655 3.6051 7.20839 5.52273 6.0985 7.26997C4.9886 9.0172 3.25847 11.3565 2.25837 12.4684C1.1099 13.742 0.320504 14.9174 0.12464 15.6452C-0.0474828 16.2805 0.1009 17.2567 0 17.8112C0.103867 18.3657 0.430309 19.1483 0.727073 19.5439C1.02384 19.9425 1.81916 20.4941 2.49875 20.7713C3.17537 21.0486 4.06566 21.2767 4.47223 21.2767C5.15182 21.2767 5.20227 21.3634 5.06576 22.2875C4.98563 22.842 5.05092 23.8182 5.21414 24.4535C5.37736 25.0889 5.87889 25.9293 6.32701 26.3221C6.77512 26.712 7.67728 27.174 8.33016 27.3473C8.98304 27.5206 12.0545 27.7401 15.1557 27.8325L20.7942 28C23.8954 27.9076 26.9662 27.6881 27.619 27.5148C28.2719 27.3415 29.1741 26.8795 29.6222 26.4896C30.0703 26.0968 30.5718 25.2564 30.7351 24.621C30.8983 23.9857 30.9636 23.0095 30.8834 22.455C30.7469 21.5309 30.7974 21.4442 31.477 21.4442C31.8835 21.4442 32.7738 21.2161 33.4504 20.9388C34.13 20.6616 34.9254 20.11 35.2221 19.7114C35.5189 19.3158 35.8453 18.5331 35.9492 17.9787C36.0501 17.4242 35.9967 16.448 35.8246 15.8127C35.6287 15.0849 34.8393 13.9095 33.6908 12.6359C32.6907 11.524 30.9606 9.1847 29.8507 7.43746C28.7408 5.69022 27.2837 3.77259 26.613 3.17766C25.9423 2.58274 24.7256 1.77121 23.9095 1.37267C23.0934 0.977011 21.9241 0.526484 21.3128 0.37342C20.9608 0.256658 19.8894 0.020994 18.4201 0.0124286C16.9511 -0.0337794 15.2477 0.0528611 14.6364 0.205925ZM15.7493 24.4535C15.7493 24.7423 16.144 24.9358 16.9393 25.0311H18.9991C19.7944 24.9358 20.1891 24.7423 20.1891 24.4535C20.1891 24.185 19.8537 23.9886 19.2988 23.9337H17.7342H16.6395C16.0846 23.9886 15.7493 24.185 15.7493 24.4535ZM10.2206 22.0709C10.0751 21.4558 10.1849 21.1641 10.7043 20.7713C11.0723 20.4941 11.4907 20.2659 11.6332 20.2659C11.7786 20.2659 12.1614 20.5259 12.4878 20.8435C12.8143 21.1612 13.0873 21.5193 13.0932 21.6377C13.1021 21.7562 12.8677 22.1634 12.5739 22.5446C12.1555 23.0875 11.8706 23.1944 11.2266 23.05C10.6538 22.92 10.3541 22.6283 10.2206 22.0709ZM25.7286 22.2384C25.8741 21.6233 25.7643 21.3316 25.2449 20.9388C24.8769 20.6616 24.4585 20.4334 24.316 20.4334C24.1706 20.4334 23.7878 20.6934 23.4614 21.011C23.1349 21.3287 22.8619 21.6868 22.856 21.8052C22.8471 21.9237 23.0815 22.3309 23.3753 22.7121C23.7937 23.255 24.0786 23.3619 24.7226 23.2175C25.2954 23.0875 25.5951 22.7958 25.7286 22.2384Z" fill="white"/>
</svg>
