<svg id="svg" version="1.1" width="512" height="144" xmlns="http://www.w3.org/2000/svg">
	<!-- Traced Inverted Logo with Potrace -->

	<style>
		path {
			fill: url(#yellowgrad);
		}

		.point {
			fill: #4caf50;
		}
	</style>

	<defs>
		<linearGradient id="yellowgrad" x2="0%" y2="100%">
			<stop offset="5%" stop-color="#ffc107"/>
			<stop offset="95%" stop-color="#ffa000"/>
		</linearGradient>

		<linearGradient id="greengrad" x2="0%" y2="100%">
			<stop offset="5%" stop-color="#4caf50"/>
			<stop offset="95%" stop-color="#388e3c"/>
		</linearGradient>
	</defs>

	<path d="M38.659 16.750 C 37.324 18.933,12.000 116.256,12.000 119.206 C 12.000 121.478,12.732 123.353,14.105 124.595 C 16.148 126.444,19.406 126.500,124.032 126.500 L 231.853 126.500 234.677 124.404 C 236.230 123.251,238.048 121.226,238.717 119.904 L 239.934 117.500 139.930 117.000 C 35.127 116.476,38.084 116.604,38.015 112.602 C 37.990 111.146,48.182 73.547,48.750 73.000 C 49.035 72.725,48.960 81.612,48.582 92.750 L 47.895 113.000 60.921 113.000 L 73.946 113.000 73.489 103.750 C 73.238 98.663,72.826 86.625,72.573 77.000 L 72.113 59.500 83.867 40.000 C 92.149 26.259,96.619 19.827,99.002 18.221 L 102.383 15.941 88.485 16.221 L 74.587 16.500 66.044 31.617 C 53.608 53.620,53.620 53.614,58.595 35.185 C 61.018 26.211,63.000 18.224,63.000 17.435 C 63.000 16.269,60.765 16.000,51.059 16.000 C 44.491 16.000,38.912 16.337,38.659 16.750 "/>

	<path d="M415.617 16.811 C 414.929 17.924,390.000 111.417,390.000 112.884 C 390.000 113.738,393.350 113.984,402.205 113.781 L 414.410 113.500 420.402 91.250 C 425.886 70.884,426.578 69.000,428.574 69.000 C 433.305 69.000,433.431 71.009,429.620 85.717 C 427.655 93.298,425.179 102.504,424.116 106.175 C 423.053 109.847,422.443 113.109,422.759 113.425 C 423.962 114.628,443.737 114.022,444.785 112.750 C 446.056 111.208,455.110 76.834,455.215 73.156 C 455.343 68.651,454.105 66.372,450.469 64.414 L 446.981 62.535 450.696 61.249 C 455.044 59.743,458.576 56.680,460.721 52.556 C 463.413 47.380,466.000 36.687,466.000 30.738 C 466.000 25.619,465.635 24.576,462.750 21.456 C 459.731 18.190,458.896 17.872,451.000 16.978 C 440.647 15.805,416.309 15.690,415.617 16.811 M441.839 36.480 C 442.321 40.727,439.016 50.876,436.598 52.569 C 434.038 54.362,431.000 54.423,431.000 52.682 C 431.000 51.956,431.643 49.144,432.429 46.432 C 433.215 43.719,434.365 39.560,434.984 37.189 C 435.995 33.319,436.386 32.910,438.805 33.189 C 440.965 33.438,441.567 34.092,441.839 36.480 "/>

	<path d="M106.205 40.253 C 105.237 41.420,79.323 105.255,77.550 110.842 C 76.886 112.936,77.116 113.000,85.256 113.000 L 93.647 113.000 96.205 106.750 L 98.764 100.500 103.382 100.195 C 108.575 99.852,108.739 100.230,107.091 108.750 L 106.269 113.000 115.501 113.000 L 124.733 113.000 125.784 104.750 C 130.081 71.012,133.226 42.032,132.731 40.742 C 131.923 38.635,107.915 38.192,106.205 40.253 M113.342 72.489 C 111.975 80.183,110.707 86.627,110.524 86.809 C 110.342 86.992,108.823 86.997,107.150 86.821 L 104.107 86.500 109.711 72.241 C 112.793 64.398,115.430 58.098,115.572 58.241 C 115.713 58.383,114.710 64.795,113.342 72.489 "/>

	<path d="M148.330 40.215 C 147.874 40.922,143.186 57.587,137.914 77.250 L 128.328 113.000 137.955 113.000 L 147.583 113.000 151.953 96.452 C 155.935 81.372,156.508 79.930,158.411 80.202 C 161.618 80.660,161.473 83.731,157.567 98.027 C 155.605 105.210,154.000 111.534,154.000 112.082 C 154.000 112.689,157.394 112.965,162.689 112.789 L 171.379 112.500 175.265 97.639 C 178.602 84.879,178.984 82.375,177.968 79.923 C 177.317 78.352,175.933 76.796,174.892 76.466 C 172.356 75.661,172.480 74.000,175.077 74.000 C 178.585 74.000,182.658 68.848,184.907 61.564 C 188.331 50.481,187.197 43.778,181.458 41.163 C 177.472 39.347,149.411 38.544,148.330 40.215 M167.821 53.284 C 168.957 54.653,168.143 59.826,165.965 65.085 C 165.089 67.200,164.075 68.000,162.270 68.000 C 159.516 68.000,159.514 68.047,162.570 57.250 C 164.049 52.025,165.725 50.759,167.821 53.284 "/>

	<path d="M195.495 40.007 C 194.536 41.559,192.022 50.392,192.011 52.250 C 192.002 53.685,192.901 54.000,197.000 54.000 C 200.650 54.000,202.000 54.383,202.000 55.418 C 202.000 56.563,189.390 104.797,187.404 111.250 C 186.917 112.832,187.779 113.000,196.362 113.000 L 205.858 113.000 207.383 107.750 C 208.222 104.862,211.202 93.950,214.005 83.500 C 216.809 73.050,219.760 62.160,220.565 59.299 L 222.027 54.099 227.677 53.799 L 233.326 53.500 235.142 47.046 C 236.532 42.105,236.674 40.417,235.748 39.844 C 233.990 38.758,196.173 38.911,195.495 40.007 "/>

	<path d="M299.256 39.975 C 295.727 40.813,293.375 42.431,292.028 44.947 C 291.554 45.834,288.179 57.796,284.528 71.530 C 280.878 85.263,277.016 99.768,275.946 103.761 C 274.876 107.755,274.000 111.516,274.000 112.120 C 274.000 112.854,276.489 113.093,281.497 112.840 C 293.084 112.255,292.449 113.396,303.035 74.147 C 307.966 55.866,312.000 40.480,312.000 39.955 C 312.000 38.843,303.972 38.855,299.256 39.975 "/>

	<path d="M319.404 40.107 C 318.811 40.873,316.669 47.800,314.645 55.500 C 312.620 63.200,308.499 78.725,305.488 90.000 C 302.476 101.275,300.010 111.063,300.006 111.750 C 299.998 113.378,329.700 113.489,335.488 111.882 C 342.133 110.037,345.259 105.680,348.787 93.346 C 359.972 54.242,360.789 50.430,358.858 46.362 C 356.524 41.444,352.166 40.144,335.485 39.391 C 323.249 38.839,320.283 38.971,319.404 40.107 M338.947 52.946 C 340.174 53.722,339.733 56.356,336.066 70.181 C 328.964 96.950,328.242 98.957,325.307 100.073 C 323.886 100.614,322.527 100.860,322.288 100.621 C 321.946 100.279,332.733 58.474,334.512 53.250 C 335.011 51.784,336.905 51.654,338.947 52.946 "/>

	<path d="M371.309 39.837 C 370.745 40.202,366.139 56.250,361.074 75.500 C 356.009 94.750,351.680 111.073,351.454 111.774 C 351.131 112.779,354.559 112.990,367.671 112.774 L 384.298 112.500 386.114 106.000 C 387.113 102.425,387.946 99.388,387.965 99.250 C 387.984 99.112,385.150 99.000,381.667 99.000 C 378.183 99.000,375.092 98.758,374.796 98.463 C 374.501 98.167,375.209 94.342,376.371 89.963 L 378.484 82.000 384.533 82.000 L 390.582 82.000 392.291 75.586 C 393.231 72.058,394.000 68.908,394.000 68.586 C 394.000 68.264,391.323 68.000,388.052 68.000 L 382.104 68.000 383.003 65.250 C 383.498 63.737,384.392 60.587,384.990 58.250 L 386.077 54.000 392.500 54.000 L 398.923 54.000 400.010 49.750 C 400.608 47.413,401.499 44.272,401.989 42.772 C 402.513 41.168,402.511 39.816,401.983 39.490 C 400.723 38.711,372.559 39.030,371.309 39.837 "/>

	<path d="M241.468 41.250 C 241.022 42.439,229.385 85.662,224.506 104.250 L 222.210 113.000 231.480 113.000 L 240.751 113.000 243.936 101.250 C 245.688 94.787,247.671 87.475,248.344 85.000 C 249.373 81.213,249.958 80.500,252.033 80.500 C 254.278 80.500,254.482 80.861,254.301 84.500 C 254.192 86.700,252.495 94.125,250.530 101.000 C 245.405 118.928,245.293 120.067,248.313 123.578 L 250.826 126.500 340.663 126.777 C 440.133 127.084,436.017 127.333,441.618 120.678 L 444.292 117.500 355.229 117.000 C 306.244 116.725,265.829 116.162,265.416 115.750 C 264.513 114.846,265.762 108.147,269.495 93.865 C 272.548 82.181,272.370 79.071,268.527 77.014 C 265.190 75.228,265.333 74.643,269.470 73.147 C 271.379 72.457,273.804 70.679,274.859 69.196 C 277.440 65.568,280.000 56.633,280.000 51.253 C 280.000 41.605,276.649 40.000,256.501 40.000 C 245.767 40.000,241.814 40.329,241.468 41.250 M262.252 53.250 C 262.738 54.701,261.430 61.301,259.891 65.163 C 258.909 67.628,254.524 69.858,253.222 68.555 C 252.924 68.257,253.170 66.322,253.769 64.256 C 254.368 62.190,255.358 58.587,255.968 56.250 C 256.881 52.752,257.498 52.000,259.455 52.000 C 260.763 52.000,262.022 52.563,262.252 53.250" class="point"/>
</svg>
