<svg width="28" height="31" viewBox="0 0 28 31" fill="none" xmlns="http://www.w3.org/2000/svg">
<path fill-rule="evenodd" clip-rule="evenodd" d="M20.5784 2.79993L19.8698 4.22145C19.0825 3.74761 16.6102 2.79993 13.0198 2.79993C8.67832 2.79993 5.09612 5.01557 2.7957 8.24908L26.9405 21.7535C27.4016 20.5446 27.727 19.2697 27.9008 17.9628C28.6566 12.2767 24.9088 7.53832 22.9405 5.87988L23.6491 4.69528C24.3577 5.16912 25.0663 5.64296 26.0111 4.22145C26.7824 3.06101 25.1926 2.21633 24.1971 1.68743C23.9731 1.56844 23.7792 1.46543 23.6491 1.37841C23.5465 1.3098 23.4191 1.21139 23.2727 1.09829C22.4081 0.430213 20.8798 -0.750664 19.8698 0.667649C18.925 1.9944 19.9485 2.64198 20.5784 2.79993ZM25.2202 25.0704L1.07539 11.566L1.03132 11.5401C0.252588 13.557 -0.108706 15.7599 0.0285599 17.9628C0.50097 25.5442 6.87851 30.7565 14.2009 30.9934C18.8641 31.1443 22.7609 28.7008 25.2202 25.0704Z" fill="white"/>
</svg>
